<svg xmlns="http://www.w3.org/2000/svg" viewBox="0 0 144.1 19.1"><defs><style>.cls-1{fill:#f2f2f2}</style></defs><g id="Layer_1"><path class="cls-1" d="M11.9 12L13 5.9h3.3l-2.6 10.9h-2.9L9 11.2l-1.8 5.6H4.3L1.7 5.9H5L6.1 12l1.8-6.1h2.2l1.8 6.1zM22.5 8c.6 0 1.1-.2 1.4-.5s.5-.8.5-1.4-.2-.8-.5-1.2c-.3-.3-.8-.5-1.4-.5s-.8.1-1.1.4c-.3.3-.5.6-.5 1h-3.4c0-1.2.4-2.2 1.4-2.9 1-.7 2.1-1.1 3.5-1.1s2.9.4 3.9 1.1c1 .7 1.5 1.8 1.5 3.1s-.2 1.3-.6 1.8-1 1-1.7 1.3c.8.3 1.4.7 1.9 1.3s.7 1.3.7 2.1c0 1.3-.5 2.4-1.6 3.2s-2.4 1.2-4 1.2-2.6-.4-3.7-1.1-1.5-1.8-1.5-3.1h3.4c0 .5.2.9.5 1.2.3.3.8.5 1.3.5s1.1-.2 1.5-.5c.4-.3.6-.8.6-1.3s-.2-1.2-.6-1.6c-.4-.3-.9-.5-1.6-.5h-1.6V8h1.6zM37.2 15.2c-.3.6-.8 1-1.3 1.3s-1.2.5-1.9.5c-1.2 0-2.1-.4-2.8-1.1-.7-.8-1-1.9-1-3.5V6h2v6.4c0 1.2.2 2 .5 2.4.3.4.9.7 1.6.7s1.3-.1 1.8-.4c.5-.3.8-.7 1.1-1.2V6h2v10.9h-1.8v-1.6zM45.8 9.9l2.3-4h2.3l-3.6 5.4 3.7 5.5h-2.3l-2.5-4.1-2.5 4.1h-2.3l3.7-5.5L41 5.9h2.3l2.3 4z"/></g></svg>